<mxfile host="app.diagrams.net" modified="2023-04-11T07:27:26.422Z" agent="Mozilla/5.0 (Windows NT 10.0; Win64; x64) AppleWebKit/537.36 (KHTML, like Gecko) Chrome/111.0.0.0 Safari/537.36" etag="dodieB9KmfUQm0y0pXg6" version="21.1.5" type="github">
  <diagram name="Trang-1" id="KHdUbdDEBDviUtL646VA">
    <mxGraphModel dx="1050" dy="549" grid="1" gridSize="10" guides="1" tooltips="1" connect="1" arrows="1" fold="1" page="1" pageScale="1" pageWidth="827" pageHeight="1169" math="0" shadow="0">
      <root>
        <mxCell id="0" />
        <mxCell id="1" parent="0" />
        <mxCell id="1vTEANDpWej2wxE2s6X4-1" value="begin" style="ellipse;whiteSpace=wrap;html=1;" vertex="1" parent="1">
          <mxGeometry x="330" y="240" width="120" height="80" as="geometry" />
        </mxCell>
        <mxCell id="1vTEANDpWej2wxE2s6X4-3" style="edgeStyle=orthogonalEdgeStyle;rounded=0;orthogonalLoop=1;jettySize=auto;html=1;entryX=0.5;entryY=1;entryDx=0;entryDy=0;exitX=0.5;exitY=0;exitDx=0;exitDy=0;" edge="1" parent="1" source="1vTEANDpWej2wxE2s6X4-2" target="1vTEANDpWej2wxE2s6X4-1">
          <mxGeometry relative="1" as="geometry" />
        </mxCell>
        <mxCell id="1vTEANDpWej2wxE2s6X4-2" value="Nháº­p C" style="shape=parallelogram;perimeter=parallelogramPerimeter;whiteSpace=wrap;html=1;fixedSize=1;" vertex="1" parent="1">
          <mxGeometry x="330" y="380" width="120" height="60" as="geometry" />
        </mxCell>
        <mxCell id="1vTEANDpWej2wxE2s6X4-5" style="edgeStyle=orthogonalEdgeStyle;rounded=0;orthogonalLoop=1;jettySize=auto;html=1;entryX=0.5;entryY=1;entryDx=0;entryDy=0;" edge="1" parent="1" source="1vTEANDpWej2wxE2s6X4-4" target="1vTEANDpWej2wxE2s6X4-2">
          <mxGeometry relative="1" as="geometry" />
        </mxCell>
        <mxCell id="1vTEANDpWej2wxE2s6X4-4" value="F= C*1.8 + 32" style="rounded=0;whiteSpace=wrap;html=1;" vertex="1" parent="1">
          <mxGeometry x="330" y="470" width="120" height="60" as="geometry" />
        </mxCell>
        <mxCell id="1vTEANDpWej2wxE2s6X4-7" style="edgeStyle=orthogonalEdgeStyle;rounded=0;orthogonalLoop=1;jettySize=auto;html=1;entryX=0.5;entryY=1;entryDx=0;entryDy=0;" edge="1" parent="1" source="1vTEANDpWej2wxE2s6X4-6" target="1vTEANDpWej2wxE2s6X4-4">
          <mxGeometry relative="1" as="geometry" />
        </mxCell>
        <mxCell id="1vTEANDpWej2wxE2s6X4-6" value="In F" style="shape=parallelogram;perimeter=parallelogramPerimeter;whiteSpace=wrap;html=1;fixedSize=1;" vertex="1" parent="1">
          <mxGeometry x="330" y="560" width="120" height="60" as="geometry" />
        </mxCell>
        <mxCell id="1vTEANDpWej2wxE2s6X4-9" style="edgeStyle=orthogonalEdgeStyle;rounded=0;orthogonalLoop=1;jettySize=auto;html=1;entryX=0.5;entryY=1;entryDx=0;entryDy=0;" edge="1" parent="1" source="1vTEANDpWej2wxE2s6X4-8" target="1vTEANDpWej2wxE2s6X4-6">
          <mxGeometry relative="1" as="geometry" />
        </mxCell>
        <mxCell id="1vTEANDpWej2wxE2s6X4-8" value="End" style="ellipse;whiteSpace=wrap;html=1;" vertex="1" parent="1">
          <mxGeometry x="330" y="650" width="120" height="70" as="geometry" />
        </mxCell>
      </root>
    </mxGraphModel>
  </diagram>
</mxfile>
